<?xml version="1.0" encoding="UTF-8"?>
<svg version="1.1" xmlns="http://www.w3.org/2000/svg" width="3000" height="3000">
<path d="M0 0 C1.07193604 0.65597168 1.07193604 0.65597168 2.16552734 1.32519531 C20.34498677 12.63563289 38.56365086 26.53110384 52.3515625 43.04296875 C54.20613903 45.24472904 56.16334249 47.33066567 58.125 49.4375 C77.71651454 71.19106623 95.37677406 97.12142555 109 123 C109.34450195 123.64565918 109.68900391 124.29131836 110.04394531 124.95654297 C139.29346994 180.58310528 145.57615736 249.89970523 152.1875 311.3125 C152.36854782 312.96264099 152.36854782 312.96264099 152.55325317 314.64611816 C156.84403903 354.08787412 158.53530404 393.7151761 159.94103622 433.34612274 C160.10669778 437.98858994 160.27725907 442.63087286 160.44764805 447.27316856 C161.42675781 473.971479 162.36101533 500.67149794 163.1875 527.375 C163.22424835 528.55799683 163.2609967 529.74099365 163.29885864 530.95983887 C164.41619394 567.38697008 165.14697854 603.82226402 165.55761719 640.26391602 C165.60151243 644.13150225 165.65017266 647.99898238 165.703125 651.86645508 C166.20173909 688.46303277 165.84312465 725.01356967 163.75 761.5625 C163.68719849 762.6844577 163.62439697 763.80641541 163.55969238 764.96237183 C158.10040003 861.46530993 145.2858167 957.62389865 116 1113 C115.76708252 1114.15514099 115.53416504 1115.31028198 115.29418945 1116.50042725 C98.03223942 1202.03584148 76.59327018 1286.8833538 43 1396 C42.69598267 1396.95116699 42.39196533 1397.90233398 42.07873535 1398.88232422 C28.63680643 1440.88383128 14.30063349 1482.48619957 -1.41796875 1523.69140625 C-1.72152283 1524.4874678 -2.0250769 1525.28352936 -2.33782959 1526.10371399 C-4.5031628 1531.75825728 -6.73832766 1537.38334399 -9 1543 C-7.52466797 1542.01773437 -7.52466797 1542.01773437 -6.01953125 1541.015625 C72.57180799 1489.15053627 165.49139042 1468.47401318 349.59863281 1446.2857666 C353.03117927 1445.99738047 356.46285241 1445.69988453 359.89453125 1445.40136719 C389.99685071 1442.81412109 419.92646738 1441.62856829 450.125 1441.625 C450.88813633 1441.62402187 451.65127266 1441.62304375 452.43753433 1441.62203598 C475.60641238 1441.59354618 498.85172212 1441.87503583 521.75 1445.8125 C522.77327393 1445.98426758 523.79654785 1446.15603516 524.85083008 1446.33300781 C556.54826039 1451.82084786 586.38535372 1462.04823182 612 1482 C612.87914062 1482.65742187 613.75828125 1483.31484375 614.6640625 1483.9921875 C631.68408347 1497.20712825 646.43019209 1513.50756826 657.59521484 1531.90795898 C663.00955324 1540.79043444 668.88463391 1549.3746766 674.69311523 1558.00195312 C694.2492204 1587.10660806 706.71234574 1616.10147725 715.06665039 1650.1940918 C715.71686658 1652.84547034 716.39513658 1655.47721962 717.10327148 1658.11254883 C720.26947878 1670.38310085 720.58881975 1682.18896521 720.4375 1694.8125 C720.43068207 1695.86880615 720.42386414 1696.9251123 720.4168396 1698.01342773 C719.82283425 1787.9258422 705.7338272 1882.15479969 648.265625 1993.80078125 C647.51796875 1994.52652344 646.7703125 1995.25226563 646 1996 C644.81857178 1997.32027128 643.65078537 1998.65293582 642.5 2000 C639.76216181 2003.15558345 636.95251254 2006.23703636 634.125 2009.3125 C630.83567762 2012.91391171 627.67982364 2016.57307275 624.625 2020.375 C620.24055753 2025.80891009 615.54499937 2030.89826018 610.78515625 2036 C608.02723578 2038.95801032 605.35637965 2041.9836096 602.70703125 2045.0390625 C597.0147642 2051.57800543 591.19362994 2057.93422022 585 2064 C582.25949488 2066.72647523 579.53781934 2069.46972462 576.8359375 2072.234375 C569.88785339 2079.31370626 562.8157794 2085.87268381 555 2092 C553.89384493 2092.90512749 552.78978943 2093.81282504 551.6875 2094.72265625 C514.47533879 2125.28467711 471.15762777 2148.02412184 428.58203125 2170.09765625 C424.94497879 2171.98393211 421.31759072 2173.88673305 417.69921875 2175.80859375 C405.8860799 2182.07385725 393.9493358 2188.03463494 381.82409668 2193.67521667 C380.06274928 2194.50146447 378.30793069 2195.34196019 376.5637207 2196.20379639 C369.22441971 2199.73607934 361.83134375 2201.86921361 353.9453125 2203.8359375 C352.55839224 2204.1903193 351.17174227 2204.54576027 349.78533936 2204.90216064 C346.80301486 2205.66721115 343.81932407 2206.42656792 340.83441162 2207.18145752 C333.49717898 2209.03824915 326.16877574 2210.92942454 318.84022903 2212.8201561 C317.11453766 2213.26536508 315.38876516 2213.71025973 313.66291428 2214.15485001 C293.92667782 2219.24104171 274.25112195 2224.54604173 254.58318329 2229.88935471 C251.86460811 2230.62782283 249.14586305 2231.36566227 246.42706299 2232.103302 C236.72135946 2234.73667135 227.01651187 2237.37317781 217.31226158 2240.01189709 C135.56871737 2262.23871879 53.80692561 2284.00176653 -36.5513916 2303.26696777 C-39.68962163 2303.93402633 -42.82684393 2304.60561511 -45.96386719 2305.27832031 C-99.67039282 2316.74241822 -155.18671116 2322.93051944 -210 2326 C-211.0401828 2326.06145203 -211.0401828 2326.06145203 -212.10137939 2326.12414551 C-227.69000025 2327.03075218 -243.26216658 2327.24246676 -258.875 2327.25 C-260.77836624 2327.25101212 -260.77836624 2327.25101212 -262.72018433 2327.25204468 C-278.53391075 2327.23877324 -294.29150328 2327.02924846 -310.0625 2325.8125 C-310.75349792 2325.76218628 -311.44449585 2325.71187256 -312.15643311 2325.66003418 C-340.16896553 2323.53639842 -367.98151528 2317.87057355 -395.52941895 2312.5748291 C-398.65020081 2311.97633411 -401.77207761 2311.38367337 -404.89400005 2310.79116154 C-414.93412191 2308.88535936 -424.96895993 2306.953024 -435 2305 C-436.1649317 2304.7732918 -436.1649317 2304.7732918 -437.35339737 2304.54200363 C-473.26229643 2297.54577204 -473.26229643 2297.54577204 -489.4375 2293.3125 C-490.22277069 2293.10956329 -491.00804138 2292.90662659 -491.81710815 2292.69754028 C-517.47696303 2286.03531767 -542.714271 2277.65454149 -567 2267 C-567.82773926 2266.64373535 -568.65547852 2266.2874707 -569.50830078 2265.92041016 C-589.54171244 2257.29152618 -609.29489747 2248.20674697 -625.44921875 2233.30859375 C-627.98681288 2231.01193505 -630.59025088 2228.84100111 -633.25 2226.6875 C-642.66030296 2219.06076224 -651.82327543 2211.14457858 -660.78515625 2202.99609375 C-662.76631755 2201.2106027 -664.78092996 2199.47746808 -666.8125 2197.75 C-706.60940801 2162.84746979 -727.25518683 2115.22021393 -732 2063 C-732.1359717 2061.63078498 -732.27272441 2060.26164736 -732.41015625 2058.89257812 C-738.45112579 1997.31897131 -736.77921715 1933.60435928 -732 1872 C-731.8691803 1870.2842981 -731.8691803 1870.2842981 -731.73571777 1868.53393555 C-729.03576871 1833.26122868 -725.43490738 1798.09575536 -721 1763 C-720.84787048 1761.79438416 -720.69574097 1760.58876831 -720.53900146 1759.34661865 C-716.42513973 1726.89293802 -711.74040184 1694.54381453 -706.47001958 1662.25859761 C-706.05260712 1659.70110493 -705.6362829 1657.14343659 -705.22004509 1654.58575249 C-699.29800781 1618.23283686 -692.93441883 1581.96251719 -686.43307358 1545.70933074 C-685.34242469 1539.62710422 -684.25467372 1533.54436468 -683.16851807 1527.46133423 C-671.7900888 1463.73989981 -660.31395883 1400.03620723 -648.61928558 1336.37198639 C-648.00357057 1333.01944161 -647.38835374 1329.66680574 -646.77325439 1326.31414795 C-627.90371967 1223.48555764 -608.12791948 1120.80191245 -571 950 C-570.82499214 949.21942734 -570.64998428 948.43885468 -570.46967316 947.6346283 C-553.98274041 874.10912379 -536.2665525 800.8481457 -517 728 C-516.72667847 726.96494324 -516.45335693 725.92988647 -516.17175293 724.86346436 C-510.66815475 704.04211562 -504.86994459 683.34238505 -498.5625 662.75 C-487.16948916 625.51233664 -477.63197234 587.78824712 -468.00226974 550.06574249 C-437.09282401 428.98948255 -437.09282401 428.98948255 -416.6784668 369.96185303 C-416.01873552 368.05417559 -415.36186475 366.14550965 -414.70507812 364.23681641 C-402.2215915 328.105789 -387.47828471 292.76575043 -370.67773438 258.43212891 C-367.76349318 252.47048706 -364.87386237 246.49690277 -361.9800415 240.52532959 C-360.94051344 238.38121548 -359.89985501 236.23765348 -358.85888672 234.09423828 C-355.42315638 227.01767463 -352.00482475 219.93375278 -348.62792969 212.82885742 C-338.73391645 192.02168148 -328.54397606 171.57538546 -316.68017578 151.80908203 C-315.05979118 149.09996474 -313.46226624 146.37869737 -311.87109375 143.65234375 C-305.44248815 132.69274551 -298.51659766 122.24177105 -291 112 C-290.24203125 110.95714844 -289.4840625 109.91429687 -288.703125 108.83984375 C-280.12439945 97.20846951 -271.01136984 85.96546124 -261.18359375 75.3671875 C-259.29881738 73.32394156 -257.48558399 71.24401341 -255.6875 69.125 C-248.15048306 60.46278859 -239.79680108 52.36983907 -231 45 C-230.18015625 44.27941406 -229.3603125 43.55882812 -228.515625 42.81640625 C-220.23164508 35.66518049 -211.34056664 29.54254107 -202.23339844 23.48828125 C-200.30498581 22.20323497 -198.38907286 20.90225096 -196.4765625 19.59375 C-144.4289981 -15.1886417 -56.87549816 -34.89036473 0 0 Z " fill="#FDFDFD" transform="translate(1035,361)"/>
<path d="M0 0 C0.85469376 -0.00701431 1.70938751 -0.01402863 2.58998108 -0.02125549 C5.33998943 -0.03868693 8.08978214 -0.04510995 10.83984375 -0.046875 C12.25169952 -0.04788712 12.25169952 -0.04788712 13.69207764 -0.04891968 C28.25984082 -0.03233334 42.41800886 0.56783245 56.77734375 3.203125 C57.70401855 3.36409668 58.63069336 3.52506836 59.58544922 3.69091797 C98.04835711 10.4900158 133.93502542 23.50878512 167.06201172 44.13885498 C169.81127948 45.84462576 172.5768599 47.52359898 175.33984375 49.20703125 C195.79651849 61.74776541 215.55141788 75.22086329 233.05859375 91.6953125 C234.98188674 93.46938448 236.89769655 95.14751892 238.91796875 96.80078125 C241.19273051 98.71195404 243.11422469 100.51519284 245.02734375 102.765625 C245.61 103.45011719 246.19265625 104.13460938 246.79296875 104.83984375 C247.4478125 105.61972656 248.10265625 106.39960937 248.77734375 107.203125 C249.5765625 108.13769531 250.37578125 109.07226562 251.19921875 110.03515625 C313.5780302 183.66105643 318.8354189 288.82201793 312.1875 386.03125 C308.57570058 424.23254788 295.48011632 461.48987817 273.77734375 493.203125 C273.29765137 493.90904785 272.81795898 494.6149707 272.32373047 495.34228516 C261.99850616 510.46005974 251.75464254 522.98346793 236.90234375 533.828125 C236.07009277 534.43712646 235.2378418 535.04612793 234.38037109 535.67358398 C231.84918835 537.52115035 229.31369483 539.36266264 226.77734375 541.203125 C226.05160156 541.73276855 225.32585938 542.26241211 224.578125 542.80810547 C180.02242602 575.25309734 129.85827831 593.84825865 77.90136719 610.85009766 C74.20152384 612.06144379 70.50859046 613.29283381 66.81640625 614.52734375 C46.91893822 621.12111215 26.59526642 626.48785209 5.77734375 629.203125 C4.73936646 629.34451904 4.73936646 629.34451904 3.68041992 629.48876953 C-17.65672605 632.02787855 -41.21104989 631.66405066 -62.22265625 627.203125 C-63.17398437 627.00976562 -64.1253125 626.81640625 -65.10546875 626.6171875 C-96.08127136 620.20020537 -125.57559525 608.28895534 -152.22265625 591.203125 C-152.83931152 590.80802734 -153.4559668 590.41292969 -154.09130859 590.00585938 C-162.43975291 584.56344862 -169.43117062 578.33117016 -176.3359375 571.1640625 C-178.55632538 568.85968323 -180.83922283 566.7083213 -183.28515625 564.640625 C-190.83617143 558.20946376 -197.83637107 551.00108507 -204.2578125 543.44921875 C-206.41271629 540.98585955 -208.6410522 538.60329912 -210.8815918 536.21801758 C-216.14031048 530.61814429 -221.20195798 524.94774784 -226.00390625 518.9453125 C-227.95781535 516.53044598 -229.96504655 514.17386757 -231.99951172 511.8269043 C-239.2591308 503.41957651 -245.84899406 494.53055003 -252.44189453 485.59667969 C-254.0542534 483.42947838 -255.69124683 481.28508291 -257.34375 479.1484375 C-263.85931203 470.65487776 -268.84264018 461.96366843 -273.22265625 452.203125 C-273.75503906 451.05972656 -274.28742188 449.91632812 -274.8359375 448.73828125 C-287.44345288 419.77683119 -289.0990005 387.06669903 -289.71484375 355.91015625 C-289.73215546 355.05822315 -289.74946716 354.20629005 -289.76730347 353.3285408 C-289.89561376 346.89116187 -290.00246763 340.45357393 -290.09765625 334.015625 C-290.11168739 333.07247059 -290.12571854 332.12931618 -290.14017487 331.15758133 C-290.54007336 303.21520343 -290.36869658 275.86462538 -285.5715332 248.24554443 C-285.22917903 246.2413111 -284.91160638 244.23485973 -284.60351562 242.22509766 C-275.70390567 184.56366157 -248.30813314 138.9180307 -209.20629883 96.56591797 C-206.74544446 93.89379315 -204.3456105 91.19347113 -202.03515625 88.390625 C-199.43424946 85.31682607 -196.53949536 82.74279151 -193.47265625 80.140625 C-190.93213298 77.95295219 -188.4898651 75.6740751 -186.03515625 73.390625 C-149.43738529 40.15182754 -102.88207199 19.981607 -55.19824219 8.90527344 C-51.95239354 8.13935116 -48.72923332 7.30555918 -45.50512695 6.45385742 C-30.69772461 2.56674847 -15.32270502 0.08461085 0 0 Z " fill="#FDFDFD" transform="translate(2103.22265625,1678.796875)"/>
<path d="M0 0 C1.24370361 0.08725342 2.48740723 0.17450684 3.76879883 0.2644043 C22.15599598 1.68006927 40.24006133 4.82030535 57.875 10.25 C58.57705566 10.46398438 59.27911133 10.67796875 60.00244141 10.8984375 C100.16993165 23.53498312 141.48804809 47.1095365 170.875 77.25 C171.50535156 77.84683594 172.13570312 78.44367188 172.78515625 79.05859375 C179.04107797 85.07178129 184.31617131 91.6282307 189.55371094 98.51855469 C190.77504315 100.11901441 192.01561071 101.70474612 193.2578125 103.2890625 C213.38172937 129.30290626 229.76444801 163.8408942 230.875 197.25 C230.90078125 197.93610352 230.9265625 198.62220703 230.953125 199.32910156 C232.15472567 235.72258197 217.69297137 269.88848864 193.875 297.25 C193.05644531 298.20132813 192.23789063 299.15265625 191.39453125 300.1328125 C160.59821539 335.24140382 106.08390181 359.7711215 59.875 363.25 C53.87198371 363.56350801 47.8665464 363.78692643 41.859375 364.00390625 C40.08139775 364.06966204 38.30342336 364.13549524 36.52545166 364.20140076 C32.79015973 364.33896683 29.05478173 364.47385871 25.31933594 364.60717773 C21.57305462 364.74123663 17.82699243 364.87985813 14.08105469 365.02319336 C-5.65264628 365.77740014 -25.37136701 366.38544211 -45.12109375 366.40625 C-45.9056469 366.4083806 -46.69020004 366.41051121 -47.49852753 366.41270638 C-75.6480526 366.46230103 -100.61044305 359.38804432 -127 350.125 C-128.08589417 349.74470139 -128.08589417 349.74470139 -129.19372559 349.35671997 C-136.87195594 346.65461469 -144.40053469 343.79910056 -151.77392578 340.33105469 C-155.00001516 338.84765658 -158.29091266 337.65827755 -161.625 336.4375 C-173.36805956 331.89305578 -184.08517975 324.26430554 -189.5625 312.625 C-192.9105624 303.13397094 -192.14669568 293.48589526 -187.9140625 284.453125 C-185.4271217 280.00052356 -182.60683308 275.80235993 -179.76611328 271.56958008 C-173.28124678 261.72925897 -168.17455775 251.12980183 -162.85498047 240.63183594 C-161.21589147 237.42767832 -159.54191791 234.24557929 -157.84765625 231.0703125 C-134.15228533 186.64471501 -124.98106626 136.01430875 -138.00439453 86.5871582 C-143.17579087 66.94135015 -144.42775426 40.94218015 -135.125 22.25 C-133.03241576 19.00701497 -130.69200002 16.1269979 -128.125 13.25 C-127.5784375 12.59902344 -127.031875 11.94804688 -126.46875 11.27734375 C-119.54419368 3.58520689 -109.25625314 0.76250729 -99.14215088 0.03562927 C-95.69954857 -0.07586628 -92.26065925 -0.13108085 -88.81640625 -0.1640625 C-87.53684555 -0.18342865 -86.25728485 -0.2027948 -84.93894958 -0.2227478 C-81.54111819 -0.27382147 -78.14324449 -0.3134655 -74.74523926 -0.35089111 C-72.04721043 -0.38250176 -69.34933307 -0.42225774 -66.65142059 -0.46245575 C-16.81632503 -1.20436503 -16.81632503 -1.20436503 0 0 Z " fill="#FDFDFD" transform="translate(2610.125,1926.75)"/>
<path d="M0 0 C1.2328441 1.03803223 2.46591125 2.07579964 3.69921875 3.11328125 C7.16333182 6.04103989 10.58653952 9.01347742 14 12 C14.52045898 12.45052734 15.04091797 12.90105469 15.57714844 13.36523438 C26.39766163 22.76542656 35.41257475 33.45947443 44.125 44.8125 C44.56714844 45.37864014 45.00929688 45.94478027 45.46484375 46.52807617 C56.24806336 60.87915861 63.32485853 76.96566354 70.1875 93.4375 C71.56789295 96.71404828 72.95247189 99.98880571 74.33746338 103.26341248 C75.25750906 105.43910059 76.17626098 107.61533629 77.09368896 109.79212952 C80.69464233 118.3248358 84.41957776 126.79677667 88.20309448 135.24975586 C103.93528522 170.45020065 114.73912226 203.04871759 116.25 241.8125 C116.31071182 243.2672876 116.31071182 243.2672876 116.37265015 244.75146484 C116.88925065 257.3428442 117.16652795 269.90146097 116.8125 282.5 C116.76754395 284.29207886 116.76754395 284.29207886 116.72167969 286.12036133 C116.20401349 298.7642678 114.25970679 311.27300174 105.30078125 320.80859375 C98.02649492 327.3636248 91.13274548 330.17697576 81.375 330.3125 C80.73304688 330.34150391 80.09109375 330.37050781 79.4296875 330.40039062 C74.06675048 330.46542624 69.13005209 329.39693858 63.94140625 328.1484375 C52.60340768 325.45581353 41.14321083 324.42258889 29.5625 323.3125 C27.42503205 323.09928907 25.28766135 322.88510088 23.15039062 322.66992188 C17.43500147 322.09807081 11.71854087 321.53943993 6 321 C5.02422501 320.90788742 4.04845001 320.81577484 3.04310608 320.72087097 C2.07771408 320.63122574 1.11232208 320.54158051 0.11767578 320.44921875 C-0.74856415 320.36865234 -1.61480408 320.28808594 -2.5072937 320.20507812 C-41.19243515 317.02240222 -88.54423564 329.20933785 -119.625 352.734375 C-138.24448665 366.81293959 -162.94700466 379.38739408 -187 377 C-198.36589147 374.65761487 -207.45929462 370.21185859 -214.2746582 360.64770508 C-219.75517114 352.23732405 -223.38841614 342.84312807 -226.9375 333.5 C-230.05914806 325.39062037 -233.24932243 317.32472386 -236.66015625 309.33203125 C-250.47164814 276.94233572 -263.78666852 243.38837785 -267 208 C-267.10957031 206.80375 -267.21914062 205.6075 -267.33203125 204.375 C-271.14562441 157.18814067 -263.90804034 102.8427375 -241 61 C-240.36052078 59.70903569 -239.72528807 58.41596139 -239.09375 57.12109375 C-233.06059121 44.98047259 -225.42326401 33.59405074 -217 23 C-216.34128906 22.13761719 -215.68257812 21.27523438 -215.00390625 20.38671875 C-191.64738783 -9.41602215 -158.13513934 -33.16360358 -120 -38.3125 C-76.15979709 -43.31409532 -33.0507198 -28.1401369 0 0 Z " fill="#FDFDFD" transform="translate(2098,1319)"/>
<path d="M0 0 C7.56486575 6.11190615 13.05026535 13.04980292 17.63671875 21.55859375 C24.82294124 34.81072395 32.2491546 47.92912045 40.05859375 60.82421875 C48.65605989 75.03856494 56.7262435 89.50942841 63.87109375 104.51171875 C64.16580566 105.1262793 64.46051758 105.74083984 64.76416016 106.37402344 C75.17675315 128.33618338 82.54282935 152.28572628 84.87109375 176.51171875 C84.96132812 177.42630859 85.0515625 178.34089844 85.14453125 179.28320312 C89.56819749 226.06048461 88.71460026 274.42393243 67.87109375 317.51171875 C67.23813149 318.91803457 66.60819168 320.32571275 65.98046875 321.734375 C58.65829055 337.9662459 49.73747713 353.16747077 37.87109375 366.51171875 C37.16726563 367.32382813 36.4634375 368.1359375 35.73828125 368.97265625 C33.49030434 371.52680923 31.19306891 374.02469204 28.87109375 376.51171875 C28.00097656 377.45917969 27.13085938 378.40664062 26.234375 379.3828125 C2.87411872 404.19293169 -27.90558974 416.77573427 -61.65234375 417.79296875 C-82.64566395 418.16172344 -102.21796839 416.36944014 -122.12890625 409.51171875 C-122.76103027 409.29676758 -123.3931543 409.08181641 -124.04443359 408.86035156 C-134.89426263 405.08478037 -144.41405649 399.56561645 -154.12890625 393.51171875 C-155.02689941 392.9585498 -155.92489258 392.40538086 -156.85009766 391.83544922 C-167.44227512 385.30008115 -177.85894314 378.86574002 -187.12890625 370.51171875 C-187.93714844 369.79886719 -188.74539062 369.08601563 -189.578125 368.3515625 C-191.23775053 366.87431341 -192.88755371 365.38595536 -194.52734375 363.88671875 C-196.37146845 362.2031935 -198.23268672 360.53830605 -200.10546875 358.88671875 C-206.83218948 352.92330628 -212.66490903 346.68645514 -218.12890625 339.51171875 C-218.73605469 338.7434375 -219.34320312 337.97515625 -219.96875 337.18359375 C-226.81523159 328.20934726 -232.38388198 318.36551292 -238.19628906 308.70898438 C-241.4338226 303.35290312 -244.7193886 298.02657065 -248.00390625 292.69921875 C-248.66737061 291.62140137 -249.33083496 290.54358398 -250.0144043 289.43310547 C-253.44003923 283.86897879 -256.87238964 278.30909495 -260.3125 272.75390625 C-285.7730978 231.60498149 -301.20672642 194.78795569 -308.12890625 146.51171875 C-308.26425781 145.57489258 -308.39960938 144.63806641 -308.5390625 143.67285156 C-314.19816686 103.74047781 -314.19816686 103.74047781 -303.921875 89.58203125 C-296.80883324 81.36871506 -288.8787404 77.88589475 -278.25390625 76.76171875 C-273.55363254 76.46094841 -269.13984774 76.71554209 -264.47119141 77.24169922 C-260.52059696 77.56086339 -256.5932055 77.60885062 -252.6328125 77.6015625 C-251.80793335 77.60046478 -250.9830542 77.59936707 -250.13317871 77.59823608 C-241.05947687 77.55289094 -232.00328533 77.19136902 -222.94042969 76.76708984 C-220.13113493 76.63682209 -217.32151799 76.51726472 -214.51171875 76.3984375 C-191.31337585 75.59735358 -191.31337585 75.59735358 -168.69140625 70.88671875 C-167.82418945 70.62584473 -166.95697266 70.3649707 -166.06347656 70.09619141 C-137.40381076 61.22633106 -107.36386902 48.45057384 -86.3046875 26.59375 C-79.43168034 19.4826479 -72.5439049 13.81460111 -64.12890625 8.51171875 C-63.15179687 7.88523437 -62.1746875 7.25875 -61.16796875 6.61328125 C-43.20681628 -4.41380699 -19.28642209 -13.35213837 0 0 Z " fill="#FDFDFD" transform="translate(2396.12890625,2267.48828125)"/>
<path d="M0 0 C0.86166275 -0.00701431 1.7233255 -0.01402863 2.61109924 -0.02125549 C5.36969305 -0.0386319 8.12807226 -0.04510575 10.88671875 -0.046875 C11.82896301 -0.04754974 12.77120728 -0.04822449 13.74200439 -0.04891968 C27.23320881 -0.03354795 40.35549353 0.25167566 53.57421875 3.203125 C54.40421387 3.38004883 55.23420898 3.55697266 56.08935547 3.73925781 C90.56980887 11.22068278 126.48271789 28.16105451 146.2890625 58.54296875 C175.02376102 104.04685303 178.32426536 150.96899199 166.83007812 202.54199219 C165.38138538 208.53830309 163.61094458 214.38203885 161.57421875 220.203125 C161.12175781 221.50757568 161.12175781 221.50757568 160.66015625 222.83837891 C152.04300186 247.30181466 139.44114774 267.06596688 124.25195312 287.90039062 C121.49641298 291.68244165 118.75304262 295.47326188 116.01171875 299.265625 C115.47313232 300.01046143 114.9345459 300.75529785 114.37963867 301.52270508 C110.7440354 306.55935372 107.14850455 311.62282321 103.57421875 316.703125 C77.81221242 353.29480226 77.81221242 353.29480226 64.94335938 366.76660156 C63.61616807 368.15911113 62.30582045 369.56761408 60.99609375 370.9765625 C43.94745537 388.79085829 21.21818854 402.61968365 -0.2734375 414.44140625 C-3.27340893 416.11797021 -6.18933565 417.88856186 -9.11132812 419.6953125 C-21.78945208 427.50902031 -33.26025367 432.60763276 -48.42578125 431.203125 C-55.18207236 429.33798622 -61.00462033 426.79459322 -65.42578125 421.203125 C-65.91433594 420.62820313 -66.40289063 420.05328125 -66.90625 419.4609375 C-71.46161902 413.85952078 -73.72920615 408.04128387 -76.09960938 401.28155518 C-80.55666241 388.5759876 -85.81725217 376.4452296 -91.67578125 364.328125 C-92.52340687 362.56288896 -93.37089914 360.79758889 -94.21826172 359.03222656 C-96.60181855 354.07987217 -99.00709492 349.13840797 -101.42578125 344.203125 C-101.73721069 343.56717407 -102.04864014 342.93122314 -102.36950684 342.27600098 C-114.38128647 317.8108447 -131.4425902 297.60297965 -152.42578125 280.203125 C-152.99312988 279.7272998 -153.56047852 279.25147461 -154.14501953 278.76123047 C-156.16935393 277.06690077 -158.20265721 275.3838697 -160.23828125 273.703125 C-160.87797852 273.16888916 -161.51767578 272.63465332 -162.17675781 272.08422852 C-171.46799748 264.48494075 -181.09654951 259.22369058 -192.23828125 254.828125 C-202.09101356 250.79206598 -210.89841742 246.60730216 -219.42578125 240.203125 C-220.36808594 239.49800781 -221.31039062 238.79289062 -222.28125 238.06640625 C-235.86400553 227.39560959 -247.23346802 216.42342938 -251.11328125 199.140625 C-252.52113059 185.90684123 -247.88421296 176.49210975 -241.42578125 165.203125 C-240.76578125 165.203125 -240.10578125 165.203125 -239.42578125 165.203125 C-239.03422852 164.35210205 -239.03422852 164.35210205 -238.63476562 163.48388672 C-237.32084324 161.00515835 -235.79980475 158.92872237 -234.08203125 156.7109375 C-233.41792236 155.84823242 -232.75381348 154.98552734 -232.06958008 154.09667969 C-231.36212646 153.18305664 -230.65467285 152.26943359 -229.92578125 151.328125 C-225.26709967 145.26816906 -220.63189102 139.20865517 -216.23828125 132.953125 C-208.09219082 121.38256344 -199.4194815 110.12650807 -190.42578125 99.203125 C-189.62914063 98.22085937 -188.8325 97.23859375 -188.01171875 96.2265625 C-174.8958399 80.32275587 -160.19870936 65.24353402 -143.42578125 53.203125 C-142.60851563 52.59082031 -141.79125 51.97851562 -140.94921875 51.34765625 C-129.01159055 42.62400487 -115.81685954 35.60638716 -102.51660156 29.21386719 C-100.35036166 28.16666574 -98.19672386 27.09605488 -96.04296875 26.0234375 C-66.23173884 11.34115153 -33.52078569 0.18408398 0 0 Z " fill="#FDFDFD" transform="translate(2516.42578125,1455.796875)"/>
<path d="M0 0 C8.99975477 6.54911732 14.508835 16.48076635 20.47265625 25.65625 C29.95246108 40.1727682 40.9281556 53.69709122 52.66015625 66.44140625 C54.66905848 68.63811903 56.62514113 70.86549369 58.5625 73.125 C70.74871522 87.00374511 84.78439375 96.4625644 101 105 C101.83063965 105.43989258 102.6612793 105.87978516 103.51708984 106.33300781 C113.51080613 111.58665789 123.57822261 116.45312556 134.125 120.5 C134.94057373 120.81396729 135.75614746 121.12793457 136.59643555 121.45141602 C147.16805005 125.36345925 157.61642141 127.37180289 168.8125 128.4375 C190.52592789 130.77466668 217.68099863 137.6427275 233.109375 154.46484375 C241.25701703 165.39009102 244.66656497 175.44150529 243 189 C242.01694081 195.1037705 240.225083 200.63816565 237.76953125 206.30078125 C234.81081417 213.31998581 232.24959419 220.45904976 229.69647217 227.63269043 C228.27646236 231.61682077 226.84119301 235.59544718 225.40625 239.57421875 C224.97353287 240.77414963 224.97353287 240.77414963 224.53207397 241.99832153 C207.86252769 288.17676197 188.89091376 328.08474306 153.9375 363.1875 C152.80368896 364.32832031 152.80368896 364.32832031 151.64697266 365.4921875 C147.47715027 369.65021792 143.22022533 373.64109159 138.75756836 377.4831543 C136.5630017 379.3771455 134.4408365 381.34464848 132.3125 383.3125 C89.98331184 421.33811365 33.11382298 443.51691842 -24 441 C-51.54225483 439.42208685 -80.03469429 431.72943849 -101 413 C-101.76159424 412.32662598 -101.76159424 412.32662598 -102.53857422 411.63964844 C-136.85233711 381.18605656 -155.92999337 342.68071372 -160 297 C-161.33138205 271.32939166 -161.19478754 246.7146528 -143.64453125 226.25390625 C-141.95343234 224.40549581 -140.25140887 222.56702579 -138.5390625 220.73828125 C-95.94576217 174.80304505 -72.90341767 106.72222834 -62.04248047 46.28320312 C-58.82228256 28.474651 -53.80468169 11.57102468 -38.3671875 0.43359375 C-25.36798893 -7.43885819 -13.23625876 -7.41160735 0 0 Z " fill="#FEFEFE" transform="translate(1816,2211)"/>
<path d="M0 0 C2.1601484 0.05499671 4.32030531 0.10965977 6.48046875 0.1640625 C55.53761423 1.54483848 97.17803005 20.47430617 140.5625 42.0625 C141.17180359 42.36401978 141.78110718 42.66553955 142.40887451 42.97619629 C162.18180525 52.79752365 178.05714469 65.40581329 192.36328125 82.13671875 C196.53740646 86.8886465 201.08040317 91.2556985 205.875 95.375 C223.11607962 110.36432068 238.08152459 128.96070105 240.9375 152.3125 C241.53822879 162.97543606 237.29959236 171.91002554 232.4375 181.16015625 C231.11111111 183.78049517 230.02881322 186.37721135 229 189.125 C223.01297622 204.40639538 211.43610164 217.82613682 201.625 230.8125 C187.03353826 250.15231885 173.55190141 269.58052003 163.32421875 291.609375 C159.51979755 299.68566933 155.87191425 306.95948459 147.5 310.9375 C139.78984321 313.3225485 130.26119544 313.47496022 122.8125 310.25 C109.50369015 302.3129503 100.73967474 288.35956427 92 276 C91.08118247 274.70801084 90.16194737 273.41631849 89.2421875 272.125 C88.01016761 270.39486397 86.77819455 268.66471072 85.54858398 266.93286133 C76.02428431 253.56745378 65.73755382 240.81044541 54.56640625 228.7890625 C52.42501785 226.46189155 50.35657371 224.09941385 48.3125 221.6875 C44.84777922 217.71852409 41.07290293 214.33477165 37 211 C36.50081055 210.5884668 36.00162109 210.17693359 35.48730469 209.75292969 C27.39130424 203.11239 19.13692514 197.16482475 10 192 C8.91332031 191.3709375 7.82664062 190.741875 6.70703125 190.09375 C-7.1078 182.59018228 -22.17347023 180.95272411 -37.47772217 178.45391846 C-38.26882385 178.32475037 -39.05992554 178.19558228 -39.875 178.0625 C-40.66787415 177.93317078 -41.46074829 177.80384155 -42.27764893 177.67059326 C-54.35254286 175.69348069 -66.27428175 173.56671014 -78 170 C-78.81774902 169.75169434 -79.63549805 169.50338867 -80.47802734 169.24755859 C-96.89717567 164.13708695 -111.9826249 157.42690634 -125 146 C-125.83144531 145.35675781 -126.66289063 144.71351563 -127.51953125 144.05078125 C-138.09294566 135.30898194 -145.30168911 121.54438023 -147 108 C-148.68350337 84.03402924 -144.99265467 54.76304479 -130 35 C-129.37867188 34.17628906 -128.75734375 33.35257813 -128.1171875 32.50390625 C-112.08485267 13.06987676 -88.64063013 9.17446338 -65 6 C-64.01660645 5.8649707 -63.03321289 5.72994141 -62.02001953 5.59082031 C-56.32205861 4.81133233 -50.61922132 4.08106471 -44.91210938 3.37207031 C-41.89119297 2.9860981 -38.87552718 2.56993763 -35.859375 2.1484375 C-23.78906887 0.49043889 -12.16926339 -0.41001872 0 0 Z " fill="#FEFEFE" transform="translate(1615,1594)"/>
</svg>
