<?xml version="1.0" encoding="UTF-8"?>
<svg version="1.1" xmlns="http://www.w3.org/2000/svg" width="512" height="512">
<path d="M0 0 C3.44110066 1.27171111 4.00011393 1.95018912 5.875 5.0625 C7.00593865 7.99477707 7.8878251 10.98979601 8.7734375 14.00390625 C9.04466431 14.90296188 9.31589111 15.80201752 9.59533691 16.72831726 C10.18111788 18.67402549 10.76311058 20.62087738 11.34173584 22.56872559 C12.25902828 25.65537981 13.18701608 28.73864096 14.11767578 31.82128906 C16.95832156 41.24487135 19.7661342 50.67793438 22.54476929 60.11997986 C23.67156439 63.9431758 24.806968 67.76379049 25.94317627 71.584198 C26.72481581 74.2273388 27.49234558 76.87429013 28.25927734 79.52172852 C35.39980233 103.78477622 46.69874795 125.86508883 61.875 146.0625 C62.57882812 147.01253906 63.28265625 147.96257812 64.0078125 148.94140625 C74.62714947 162.57996648 87.60902623 175.30220977 101.875 185.0625 C102.51759766 185.5064209 103.16019531 185.9503418 103.82226562 186.40771484 C125.42127928 201.19967391 148.91517055 210.60454857 173.93460083 218.02151489 C176.89535856 218.89957298 179.8520984 219.79024481 182.80834961 220.68334961 C191.60537065 223.33420011 200.413486 225.94275759 209.24662781 228.47077942 C212.67466229 229.45210878 216.09983545 230.44324847 219.525177 231.43392944 C221.88500261 232.1099608 224.2495606 232.76699182 226.61499023 233.4230957 C228.04694614 233.83463624 229.47868182 234.24694412 230.91015625 234.66015625 C232.1412915 235.00570557 233.37242676 235.35125488 234.64086914 235.70727539 C238.33313594 237.25447649 240.31883802 239.0070528 242.875 242.0625 C243.4375 244.625 243.4375 244.625 242.875 247.0625 C239.87496819 250.74122379 237.12688949 251.92646932 232.61962891 253.24145508 C231.69152657 253.51807228 231.69152657 253.51807228 230.74467468 253.80027771 C228.70033861 254.40637334 226.65118495 254.9940859 224.6015625 255.58203125 C223.15747401 256.00675236 221.71374391 256.43269369 220.27035522 256.85978699 C216.45814847 257.98459645 212.64170502 259.09427238 208.82403564 260.20037842 C205.02364253 261.30355737 201.22663579 262.41823543 197.4296875 263.53320312 C196.69016814 263.75035508 195.95064878 263.96750704 195.18871975 264.19123936 C193.70710399 264.62639212 192.22551576 265.06163861 190.74395561 265.49698067 C189.27469697 265.92848426 187.80531245 266.35955946 186.33580208 266.790205 C177.28251104 269.44332765 168.2462896 272.13765231 159.25390625 274.9921875 C157.9887468 275.39260002 157.9887468 275.39260002 156.69802856 275.80110168 C117.59176829 288.37098897 83.06554829 312.77200177 58.875 346.0625 C58.45653809 346.63661621 58.03807617 347.21073242 57.60693359 347.80224609 C52.23917841 355.26851501 47.59364619 363.08626712 43.25 371.1875 C42.83105469 371.95457275 42.41210938 372.72164551 41.98046875 373.51196289 C32.19233605 392.27317802 26.70025118 412.96041686 20.80944824 433.18151855 C19.77163242 436.73738721 18.72419227 440.29041715 17.67773438 443.84375 C17.06459845 445.92841932 16.45169863 448.01315792 15.83886337 450.09791565 C15.44040857 451.45314638 15.04176187 452.80832071 14.64291763 454.16343689 C12.82922116 460.32785847 11.0185328 466.49156867 9.32177734 472.68945312 C9.0995903 473.48792664 8.87740326 474.28640015 8.64848328 475.10906982 C8.09939085 477.0930144 7.56484667 479.08097122 7.03198242 481.06933594 C5.77965441 484.3091632 4.5929115 485.92697501 1.875 488.0625 C-1.125 488.625 -1.125 488.625 -4.125 488.0625 C-7.25201892 484.75460819 -8.8158161 481.78649623 -10.08862305 477.44726562 C-10.41964523 476.34000122 -10.75066742 475.23273682 -11.09172058 474.09191895 C-11.43656998 472.89627319 -11.78141937 471.70062744 -12.13671875 470.46875 C-12.70676375 468.5469276 -13.2768099 466.62510554 -13.84691334 464.70330048 C-14.64474418 462.00286203 -15.43181632 459.2993314 -16.21917725 456.5958252 C-17.1827649 453.29359712 -18.1567106 449.99443773 -19.13085938 446.6953125 C-19.32195219 446.04800391 -19.51304501 445.40069532 -19.70992851 444.73377132 C-20.09627653 443.42523901 -20.48269962 442.11672885 -20.86919785 440.80824089 C-21.45030145 438.84008297 -22.03046454 436.87164926 -22.61062622 434.9032135 C-25.33288084 425.67763355 -28.10900752 416.46971167 -30.94140625 407.27734375 C-31.4778199 405.52284912 -31.4778199 405.52284912 -32.02507019 403.73291016 C-39.61730155 379.24380373 -51.37897142 356.56518251 -68.125 337.0625 C-68.85976562 336.20011719 -69.59453125 335.33773438 -70.3515625 334.44921875 C-72.55827424 331.93356736 -74.82296205 329.49118729 -77.125 327.0625 C-77.58036133 326.57458984 -78.03572266 326.08667969 -78.50488281 325.58398438 C-115.29920915 286.37251251 -165.00574592 273.3075689 -214.89453125 258.63671875 C-215.98295822 258.31469482 -217.07138519 257.9926709 -218.1927948 257.66088867 C-222.69168011 256.33492243 -227.18560202 255.02387889 -231.73193359 253.86962891 C-233.60292725 253.38695557 -233.60292725 253.38695557 -235.51171875 252.89453125 C-236.52838623 252.65065674 -237.54505371 252.40678223 -238.5925293 252.15551758 C-241.86126277 250.74472805 -243.22377217 249.03775972 -245.125 246.0625 C-245.125 242.9375 -245.125 242.9375 -244.125 240.0625 C-241.06574564 237.23257993 -237.95855852 236.20134693 -233.99658203 235.04467773 C-232.75232452 234.6767662 -231.50806702 234.30885468 -230.22610474 233.92979431 C-229.56109074 233.73748671 -228.89607674 233.5451791 -228.2109108 233.34704399 C-226.09135651 232.73410539 -223.97499361 232.11106271 -221.85910034 231.48561096 C-218.08820712 230.37279985 -214.3147278 229.26905953 -210.54034424 228.16815186 C-192.45504083 222.89220738 -174.38604443 217.60342809 -156.5078125 211.65625 C-154.68130661 211.05090675 -154.68130661 211.05090675 -152.81790161 210.43333435 C-128.16027861 202.13026166 -106.44381713 188.71180465 -87.33203125 171.08203125 C-85.41017848 169.32345093 -83.44852511 167.65430225 -81.4375 166 C-77.57408951 162.69106046 -74.36420937 158.97526897 -71.125 155.0625 C-70.48087158 154.30283936 -70.48087158 154.30283936 -69.82373047 153.52783203 C-50.1451327 130.26639097 -37.67991472 103.46965343 -28.85864258 74.49008179 C-28.0405624 71.80294179 -27.21321147 69.11877526 -26.38476562 66.43481445 C-23.34657217 56.55446985 -20.41236759 46.64831371 -17.56640625 36.7109375 C-16.98394519 34.69030799 -16.40134596 32.6697183 -15.81860352 30.64916992 C-14.70235581 26.77681888 -13.60872235 22.89899187 -12.52709961 19.0168457 C-12.01882205 17.24408656 -11.50982629 15.47153312 -11 13.69921875 C-10.67407616 12.49421219 -10.67407616 12.49421219 -10.34156799 11.26486206 C-8.71938295 5.72055467 -6.54490908 0.13089818 0 0 Z " fill="#000000" transform="translate(257.125,11.9375)"/>
</svg>
